# xmcd
#
# Track frame offsets:
#	150
#	20424
#	35001
#	48631
#	67799
#	85264
#	100080
#	113469
#	130665
#	146777
#	167224
#	185888
#	202463
#	222946
#	243273
#	257470
#	275570
#	299071
#	315378
#	335305
#
# Disc length: 4717 seconds
# Revision: 0
# Processed by: cddbd v1.5.2PL0 Copyright (c) Steve Scherf et al.
# Submitted via: dBpowerAMP V12.0
#
DISCID=32126b14
DTITLE=Giannis Parios  - Gia Panta Mazi
DYEAR=2009
DGENRE=
TTITLE0=Shmera
TTITLE1=Gi'auto sou lew pame
TTITLE2=To shmadi
TTITLE3=Thalassaki mou
TTITLE4=Exo mia dipsa
TTITLE5=To Tragoudi tou Xarh (II) (W. X. Varthakouris)
TTITLE6=Varia tou Antra h Skia
TTITLE7=To Saraki
TTITLE8=Diplo Krevvati
TTITLE9=Argise H Anoixi
TTITLE10=Pouthena Esu
TTITLE11=Tosa Grammata
TTITLE12=To Shmadi tou Erwta
TTITLE13=Mou'xeis Kanei th zwh mou kolash
TTITLE14=Egw Lew na pigainw
TTITLE15=Diplano Trapezi
TTITLE16=Omorfo Poli (Live)
TTITLE17=An Thimithis T'oneiro mou (Live)
TTITLE18=Margarita Magiopoula (Live)
TTITLE19=Nyxta Magikia (Live)
EXTD=
EXTT0=
EXTT1=
EXTT2=
EXTT3=
EXTT4=
EXTT5=
EXTT6=
EXTT7=
EXTT8=
EXTT9=
EXTT10=
EXTT11=
EXTT12=
EXTT13=
EXTT14=
EXTT15=
EXTT16=
EXTT17=
EXTT18=
EXTT19=
PLAYORDER=
